<svg width="21" height="20" viewBox="0 0 21 20" fill="none" xmlns="http://www.w3.org/2000/svg">
<path d="M21 10C21 14.8325 16.2986 18.75 10.5 18.75C9.46004 18.7513 8.42439 18.6227 7.41956 18.3675C6.65306 18.7375 4.893 19.4475 1.932 19.91C1.6695 19.95 1.47 19.69 1.57369 19.4575C2.03831 18.4125 2.45831 17.02 2.58431 15.75C0.9765 14.2125 0 12.2 0 10C0 5.1675 4.70137 1.25 10.5 1.25C16.2986 1.25 21 5.1675 21 10ZM6.5625 10C6.5625 9.66848 6.42422 9.35054 6.17808 9.11612C5.93194 8.8817 5.5981 8.75 5.25 8.75C4.9019 8.75 4.56806 8.8817 4.32192 9.11612C4.07578 9.35054 3.9375 9.66848 3.9375 10C3.9375 10.3315 4.07578 10.6495 4.32192 10.8839C4.56806 11.1183 4.9019 11.25 5.25 11.25C5.5981 11.25 5.93194 11.1183 6.17808 10.8839C6.42422 10.6495 6.5625 10.3315 6.5625 10ZM11.8125 10C11.8125 9.66848 11.6742 9.35054 11.4281 9.11612C11.1819 8.8817 10.8481 8.75 10.5 8.75C10.1519 8.75 9.81806 8.8817 9.57192 9.11612C9.32578 9.35054 9.1875 9.66848 9.1875 10C9.1875 10.3315 9.32578 10.6495 9.57192 10.8839C9.81806 11.1183 10.1519 11.25 10.5 11.25C10.8481 11.25 11.1819 11.1183 11.4281 10.8839C11.6742 10.6495 11.8125 10.3315 11.8125 10ZM15.75 11.25C16.0981 11.25 16.4319 11.1183 16.6781 10.8839C16.9242 10.6495 17.0625 10.3315 17.0625 10C17.0625 9.66848 16.9242 9.35054 16.6781 9.11612C16.4319 8.8817 16.0981 8.75 15.75 8.75C15.4019 8.75 15.0681 8.8817 14.8219 9.11612C14.5758 9.35054 14.4375 9.66848 14.4375 10C14.4375 10.3315 14.5758 10.6495 14.8219 10.8839C15.0681 11.1183 15.4019 11.25 15.75 11.25Z" fill="#A4A4A4"/>
</svg>
