<svg width="437" height="139" viewBox="0 0 437 139" fill="none" xmlns="http://www.w3.org/2000/svg">
<path d="M169.972 89.5314C166.642 89.5314 163.772 88.9823 161.363 87.884C158.954 86.7857 157.076 85.1737 155.73 83.048C154.419 80.9223 153.693 78.2829 153.551 75.1297C153.515 73.6771 153.498 72.1183 153.498 70.4531C153.498 68.788 153.515 67.1937 153.551 65.6703C153.693 62.588 154.437 59.9663 155.783 57.8051C157.129 55.644 159.007 54.0143 161.416 52.916C163.825 51.8177 166.677 51.2686 169.972 51.2686C172.31 51.2686 174.471 51.5697 176.455 52.172C178.439 52.7389 180.175 53.5891 181.663 54.7229C183.151 55.8211 184.303 57.1674 185.118 58.7617C185.968 60.3206 186.411 62.092 186.446 64.076C186.482 64.3949 186.375 64.6606 186.127 64.8731C185.915 65.0857 185.649 65.192 185.33 65.192H178.156C177.695 65.192 177.341 65.1034 177.093 64.9263C176.845 64.7137 176.633 64.3417 176.455 63.8103C175.959 61.9326 175.145 60.6571 174.011 59.984C172.913 59.2754 171.549 58.9211 169.919 58.9211C167.97 58.9211 166.429 59.4703 165.295 60.5686C164.162 61.6314 163.542 63.4206 163.435 65.936C163.329 68.8411 163.329 71.8171 163.435 74.864C163.542 77.3794 164.162 79.1863 165.295 80.2846C166.429 81.3474 167.97 81.8789 169.919 81.8789C171.549 81.8789 172.93 81.5246 174.064 80.816C175.198 80.1074 175.995 78.832 176.455 76.9897C176.597 76.4583 176.792 76.104 177.04 75.9269C177.323 75.7143 177.695 75.608 178.156 75.608H185.33C185.649 75.608 185.915 75.7143 186.127 75.9269C186.375 76.1394 186.482 76.4051 186.446 76.724C186.411 78.708 185.968 80.4971 185.118 82.0914C184.303 83.6503 183.151 84.9966 181.663 86.1303C180.175 87.2286 178.439 88.0789 176.455 88.6811C174.471 89.248 172.31 89.5314 169.972 89.5314ZM193.363 89C192.973 89 192.654 88.876 192.406 88.628C192.158 88.38 192.034 88.0611 192.034 87.6714V53.1286C192.034 52.7389 192.158 52.42 192.406 52.172C192.654 51.924 192.973 51.8 193.363 51.8H200.218C200.608 51.8 200.927 51.924 201.175 52.172C201.458 52.42 201.6 52.7389 201.6 53.1286V65.936H214.673V53.1286C214.673 52.7389 214.797 52.42 215.045 52.172C215.293 51.924 215.612 51.8 216.002 51.8H222.857C223.247 51.8 223.566 51.924 223.814 52.172C224.062 52.42 224.186 52.7389 224.186 53.1286V87.6714C224.186 88.0257 224.062 88.3446 223.814 88.628C223.566 88.876 223.247 89 222.857 89H216.002C215.612 89 215.293 88.876 215.045 88.628C214.797 88.3446 214.673 88.0257 214.673 87.6714V74.4389H201.6V87.6714C201.6 88.0257 201.458 88.3446 201.175 88.628C200.927 88.876 200.608 89 200.218 89H193.363ZM232.96 89C232.571 89 232.252 88.876 232.004 88.628C231.756 88.3446 231.632 88.0257 231.632 87.6714V53.1286C231.632 52.7389 231.756 52.42 232.004 52.172C232.252 51.924 232.571 51.8 232.96 51.8H240.082C240.471 51.8 240.79 51.924 241.038 52.172C241.322 52.42 241.463 52.7389 241.463 53.1286V87.6714C241.463 88.0257 241.322 88.3446 241.038 88.628C240.79 88.876 240.471 89 240.082 89H232.96ZM258.374 89C257.985 89 257.666 88.876 257.418 88.628C257.17 88.3446 257.046 88.0257 257.046 87.6714V60.1434H247.586C247.197 60.1434 246.878 60.0194 246.63 59.7714C246.382 59.488 246.258 59.1691 246.258 58.8149V53.1286C246.258 52.7389 246.382 52.42 246.63 52.172C246.878 51.924 247.197 51.8 247.586 51.8H276.177C276.567 51.8 276.886 51.924 277.134 52.172C277.382 52.42 277.506 52.7389 277.506 53.1286V58.8149C277.506 59.1691 277.382 59.488 277.134 59.7714C276.886 60.0194 276.567 60.1434 276.177 60.1434H266.718V87.6714C266.718 88.0257 266.594 88.3446 266.346 88.628C266.098 88.876 265.779 89 265.389 89H258.374ZM297.017 89.5314C293.686 89.5314 290.817 88.9823 288.408 87.884C285.998 86.7857 284.121 85.1737 282.774 83.048C281.464 80.9223 280.737 78.2829 280.596 75.1297C280.56 73.6771 280.542 72.1183 280.542 70.4531C280.542 68.788 280.56 67.1937 280.596 65.6703C280.737 62.588 281.481 59.9663 282.828 57.8051C284.174 55.644 286.052 54.0143 288.461 52.916C290.87 51.8177 293.722 51.2686 297.017 51.2686C299.355 51.2686 301.516 51.5697 303.5 52.172C305.484 52.7389 307.22 53.5891 308.708 54.7229C310.196 55.8211 311.348 57.1674 312.162 58.7617C313.013 60.3206 313.456 62.092 313.491 64.076C313.526 64.3949 313.42 64.6606 313.172 64.8731C312.96 65.0857 312.694 65.192 312.375 65.192H305.201C304.74 65.192 304.386 65.1034 304.138 64.9263C303.89 64.7137 303.677 64.3417 303.5 63.8103C303.004 61.9326 302.189 60.6571 301.056 59.984C299.957 59.2754 298.593 58.9211 296.964 58.9211C295.015 58.9211 293.474 59.4703 292.34 60.5686C291.206 61.6314 290.586 63.4206 290.48 65.936C290.374 68.8411 290.374 71.8171 290.48 74.864C290.586 77.3794 291.206 79.1863 292.34 80.2846C293.474 81.3474 295.015 81.8789 296.964 81.8789C298.593 81.8789 299.975 81.5246 301.109 80.816C302.242 80.1074 303.04 78.832 303.5 76.9897C303.642 76.4583 303.837 76.104 304.085 75.9269C304.368 75.7143 304.74 75.608 305.201 75.608H312.375C312.694 75.608 312.96 75.7143 313.172 75.9269C313.42 76.1394 313.526 76.4051 313.491 76.724C313.456 78.708 313.013 80.4971 312.162 82.0914C311.348 83.6503 310.196 84.9966 308.708 86.1303C307.22 87.2286 305.484 88.0789 303.5 88.6811C301.516 89.248 299.355 89.5314 297.017 89.5314ZM320.407 89C320.018 89 319.699 88.876 319.451 88.628C319.203 88.38 319.079 88.0611 319.079 87.6714V53.1286C319.079 52.7389 319.203 52.42 319.451 52.172C319.699 51.924 320.018 51.8 320.407 51.8H327.263C327.653 51.8 327.971 51.924 328.219 52.172C328.503 52.42 328.645 52.7389 328.645 53.1286V65.936H341.718V53.1286C341.718 52.7389 341.842 52.42 342.09 52.172C342.338 51.924 342.657 51.8 343.046 51.8H349.902C350.291 51.8 350.61 51.924 350.858 52.172C351.106 52.42 351.23 52.7389 351.23 53.1286V87.6714C351.23 88.0257 351.106 88.3446 350.858 88.628C350.61 88.876 350.291 89 349.902 89H343.046C342.657 89 342.338 88.876 342.09 88.628C341.842 88.3446 341.718 88.0257 341.718 87.6714V74.4389H328.645V87.6714C328.645 88.0257 328.503 88.3446 328.219 88.628C327.971 88.876 327.653 89 327.263 89H320.407ZM356.551 89C356.267 89 356.002 88.8937 355.754 88.6811C355.541 88.4331 355.435 88.1674 355.435 87.884C355.435 87.7069 355.452 87.5474 355.488 87.4057L367.976 53.288C368.083 52.8983 368.295 52.5617 368.614 52.2783C368.968 51.9594 369.447 51.8 370.049 51.8H377.914C378.516 51.8 378.977 51.9594 379.296 52.2783C379.65 52.5617 379.88 52.8983 379.987 53.288L392.422 87.4057C392.493 87.5474 392.528 87.7069 392.528 87.884C392.528 88.1674 392.404 88.4331 392.156 88.6811C391.944 88.8937 391.678 89 391.359 89H384.823C384.291 89 383.884 88.876 383.6 88.628C383.352 88.3446 383.193 88.0966 383.122 87.884L381.05 82.4634H366.86L364.841 87.884C364.77 88.0966 364.611 88.3446 364.363 88.628C364.115 88.876 363.69 89 363.087 89H356.551ZM369.039 74.8109H378.924L373.982 60.7811L369.039 74.8109ZM402.441 89C402.052 89 401.733 88.876 401.485 88.628C401.237 88.3446 401.113 88.0257 401.113 87.6714V60.1434H391.653C391.264 60.1434 390.945 60.0194 390.697 59.7714C390.449 59.488 390.325 59.1691 390.325 58.8149V53.1286C390.325 52.7389 390.449 52.42 390.697 52.172C390.945 51.924 391.264 51.8 391.653 51.8H420.244C420.634 51.8 420.953 51.924 421.201 52.172C421.449 52.42 421.573 52.7389 421.573 53.1286V58.8149C421.573 59.1691 421.449 59.488 421.201 59.7714C420.953 60.0194 420.634 60.1434 420.244 60.1434H410.785V87.6714C410.785 88.0257 410.661 88.3446 410.413 88.628C410.165 88.876 409.846 89 409.456 89H402.441Z" fill="#222222"/>
<path d="M102.128 85.8251C105.282 87.355 106.653 91.1758 104.704 94.0903C100.76 99.9908 95.408 104.837 89.1032 108.153C80.9327 112.45 71.6038 113.946 62.5203 112.416C53.4369 110.886 45.0903 106.412 38.7367 99.6685C32.3832 92.9246 28.3664 84.2753 27.2909 75.0222C26.2154 65.7691 28.1394 56.4129 32.7733 48.3617C37.4072 40.3105 44.5003 33.9998 52.9851 30.3794C61.4699 26.7589 70.8874 26.0247 79.8203 28.2871C86.708 30.0315 93.0203 33.4847 98.2076 38.2924C100.781 40.6773 100.334 44.7141 97.6207 46.9389C94.8636 49.2 90.8234 48.7053 88.0482 46.4664C84.7371 43.795 80.8803 41.8536 76.7242 40.801C70.4712 39.2173 63.879 39.7313 57.9396 42.2656C52.0002 44.7999 47.035 49.2173 43.7913 54.8532C40.5476 60.4891 39.2008 67.0384 39.9537 73.5155C40.7065 79.9927 43.5183 86.0472 47.9657 90.768C52.4132 95.4887 58.2558 98.6203 64.6142 99.6914C70.9727 100.762 77.5029 99.7151 83.2222 96.7069C87.0378 94.7 90.3547 91.8929 92.9675 88.5003C95.1343 85.6867 98.9327 84.2754 102.128 85.8251Z" fill="url(#paint0_linear_54_540)"/>
<path d="M124.009 100.18C127.354 102.063 128.567 106.325 126.36 109.465C119.305 119.503 109.69 127.531 98.4619 132.678C85.12 138.794 70.1844 140.53 55.7956 137.635C41.4068 134.741 28.3036 127.366 18.3639 116.567C8.42424 105.769 2.15843 92.1002 0.464507 77.5213C-1.22941 62.9424 1.73552 48.2015 8.93436 35.4113C16.1332 22.6211 27.1964 12.4382 40.5383 6.32203C53.8801 0.205891 68.8158 -1.52948 83.2046 1.36463C95.314 3.80027 106.513 9.40959 115.682 17.5625C118.55 20.1131 118.347 24.5399 115.523 27.1394C112.698 29.7388 108.327 29.5175 105.395 27.0394C98.2623 21.0094 89.6936 16.8482 80.4637 14.9917C68.9527 12.6764 57.0041 14.0647 46.3306 18.9576C35.6571 23.8505 26.8066 31.9969 21.0475 42.229C15.2884 52.4612 12.9165 64.254 14.2716 75.9171C15.6268 87.5802 20.6394 98.5149 28.5911 107.154C36.5429 115.793 47.0254 121.693 58.5365 124.008C70.0475 126.324 81.996 124.935 92.6695 120.042C101.228 116.119 108.614 110.104 114.175 102.599C116.46 99.5152 120.664 98.2973 124.009 100.18Z" fill="url(#paint1_linear_54_540)"/>
<path d="M92.5001 89.0001C93.6364 86.3057 95.0532 83.7537 97.2227 81.7931C99.3923 79.8326 101.965 78.3716 104.761 77.5131C107.556 76.6546 110.505 76.4194 113.401 76.8242C116.297 77.229 119.07 78.2638 121.522 79.8558C123.975 81.4478 126.049 83.5583 127.598 86.0386C129.147 88.5188 130.133 91.3086 130.487 94.2112C130.841 97.1139 130.554 100.059 129.647 102.839C128.74 105.619 127.234 108.166 125.236 110.301L114.32 102.5C114.997 101.777 116.764 99.6755 117.071 98.7342C117.378 97.7929 117.476 96.7957 117.356 95.8129C117.236 94.83 116.902 93.8854 116.377 93.0455C115.853 92.2057 115.151 91.4911 114.32 90.952C113.49 90.4129 112.551 90.0625 111.57 89.9255C110.59 89.7884 109.591 89.868 108.644 90.1587C107.698 90.4494 106.827 90.9441 106.092 91.608C105.357 92.2719 104.885 93.5877 104.5 94.5001L92.5001 89.0001Z" fill="url(#paint2_linear_54_540)"/>
<defs>
<linearGradient id="paint0_linear_54_540" x1="120" y1="59" x2="4" y2="60" gradientUnits="userSpaceOnUse">
<stop stop-color="#5160C1"/>
<stop offset="0.0001" stop-color="#515FC1"/>
<stop offset="1" stop-color="#02E7D0"/>
</linearGradient>
<linearGradient id="paint1_linear_54_540" x1="120" y1="59" x2="4" y2="60" gradientUnits="userSpaceOnUse">
<stop stop-color="#5160C1"/>
<stop offset="0.0001" stop-color="#515FC1"/>
<stop offset="1" stop-color="#02E7D0"/>
</linearGradient>
<linearGradient id="paint2_linear_54_540" x1="120" y1="59" x2="4" y2="60" gradientUnits="userSpaceOnUse">
<stop stop-color="#5160C1"/>
<stop offset="0.0001" stop-color="#515FC1"/>
<stop offset="1" stop-color="#02E7D0"/>
</linearGradient>
</defs>
</svg>
