<svg width="22" height="23" viewBox="0 0 22 23" fill="none" xmlns="http://www.w3.org/2000/svg">
<path d="M2.78739 1.51391C2.6782 1.45373 2.55588 1.42853 2.43434 1.44117C2.3128 1.45381 2.19692 1.50378 2.09988 1.58541C2.00284 1.66703 1.92853 1.77703 1.88542 1.90289C1.8423 2.02875 1.8321 2.16542 1.85599 2.29735L3.68618 9.26922C3.72031 9.39914 3.78701 9.51582 3.87862 9.60584C3.97023 9.69586 4.08304 9.75556 4.20406 9.77809L11.6266 11.148C11.9762 11.2242 11.9762 11.7762 11.6266 11.8524L4.20406 13.2223C4.08304 13.2449 3.97023 13.3046 3.87862 13.3946C3.78701 13.4846 3.72031 13.6013 3.68618 13.7312L1.85599 20.7031C1.8321 20.835 1.8423 20.9717 1.88542 21.0976C1.92853 21.2234 2.00284 21.3334 2.09988 21.415C2.19692 21.4967 2.3128 21.5466 2.43434 21.5593C2.55588 21.5719 2.6782 21.5467 2.78739 21.4865L19.7457 12.1428C19.8539 12.083 19.9449 11.9913 20.0085 11.8778C20.072 11.7643 20.1057 11.6336 20.1057 11.5002C20.1057 11.3669 20.072 11.2361 20.0085 11.1226C19.9449 11.0092 19.8539 10.9174 19.7457 10.8577L2.78739 1.51391V1.51391Z" fill="white"/>
</svg>
